<?xml version="1.0" standalone="no"?>
<!DOCTYPE svg PUBLIC "-//W3C//DTD SVG 20010904//EN"
 "http://www.w3.org/TR/2001/REC-SVG-20010904/DTD/svg10.dtd">
<svg version="1.0" xmlns="http://www.w3.org/2000/svg"
 width="275.000000pt" height="183.000000pt" viewBox="0 0 275.000000 183.000000"
 preserveAspectRatio="xMidYMid meet">

<g transform="translate(0.000000,183.000000) scale(0.100000,-0.100000)"
fill="#000000" stroke="none">
<path d="M170 1811 c-7 -13 -7 -22 0 -26 15 -9 13 -75 -2 -75 -8 0 -9 -3 -3
-8 6 -4 12 -14 13 -22 4 -16 3 -185 -1 -310 l-2 -75 -74 3 -74 4 5 -74 c6 -81
3 -98 -18 -98 -12 0 -14 -84 -14 -565 l0 -566 668 3 c367 2 674 7 684 11 29
15 28 46 -3 95 -25 42 -29 59 -35 152 -9 168 -11 185 -23 186 -6 1 -18 2 -27
3 -11 1 -13 7 -9 21 4 13 2 20 -6 20 -7 0 -5 6 6 14 18 13 15 15 -30 29 -48
15 -48 16 -10 10 22 -3 37 -2 33 2 -4 5 -3 14 3 21 8 10 3 17 -20 28 -16 9
-33 22 -37 28 -6 10 -4 10 7 2 8 -6 23 -14 34 -18 16 -6 18 -5 8 5 -18 18 -16
29 5 22 16 -6 16 -5 -1 15 -10 11 -17 29 -15 39 3 16 5 16 26 -5 41 -41 18 29
-28 88 -19 24 -30 50 -30 69 0 17 -4 31 -10 31 -5 0 -7 -7 -4 -15 4 -10 0 -15
-14 -15 -12 0 -23 9 -27 20 -5 15 -12 19 -31 14 -19 -5 -23 -3 -18 10 3 9 10
16 14 16 4 0 11 7 14 16 3 8 2 12 -4 9 -5 -3 -14 4 -20 15 -11 21 -3 25 45 20
16 -1 17 1 8 11 -10 9 -8 17 9 34 31 32 51 100 38 125 -6 11 -8 26 -4 33 4 6
4 9 -1 5 -4 -4 -23 -1 -42 7 -51 21 -65 19 -101 -18 -38 -39 -39 -49 -12 -119
28 -73 26 -85 -15 -99 -19 -7 -35 -17 -35 -21 0 -4 -8 -8 -18 -8 -10 0 -26
-16 -37 -37 -17 -31 -20 -54 -18 -155 0 -65 -1 -118 -4 -118 -3 0 -13 10 -24
23 -14 16 -18 38 -19 89 0 39 -5 70 -12 74 -7 4 -8 3 -4 -4 11 -18 -5 -62 -22
-62 -8 0 -13 3 -9 6 3 4 -5 21 -18 39 -14 17 -25 39 -25 47 0 24 -28 86 -43
95 -8 4 -17 20 -20 34 -5 21 -3 28 13 32 11 3 18 1 14 -4 -3 -5 1 -18 9 -30 8
-11 17 -17 19 -12 3 4 3 3 2 -4 -2 -7 1 -25 6 -40 4 -15 11 -39 14 -53 3 -14
13 -34 21 -45 14 -17 17 -18 25 -5 5 8 10 26 11 40 l1 25 8 -25 c7 -22 8 -20
9 15 0 29 -2 36 -9 25 -7 -11 -10 -6 -11 20 0 19 -4 44 -8 55 -5 11 -5 27 0
37 7 13 2 18 -22 27 -26 9 -30 14 -25 33 21 67 23 85 11 101 -7 9 -15 14 -18
10 -4 -3 -7 1 -7 9 0 29 -61 38 -92 14 -21 -16 -70 -159 -62 -180 3 -9 1 -16
-5 -16 -6 0 -11 -8 -12 -17 0 -14 -3 -12 -9 5 -8 19 -13 21 -29 13 -17 -9 -19
-8 -16 15 1 14 -5 35 -15 46 l-17 21 -20 -20 -21 -21 -6 82 c-3 44 -8 228 -12
409 -4 197 -10 327 -16 327 -6 0 -8 -76 -6 -200 3 -172 2 -200 -11 -200 -11 0
-10 -4 5 -15 14 -11 15 -14 4 -15 -12 0 -13 -2 -1 -9 10 -7 12 -22 7 -62 -4
-30 -8 -64 -9 -77 -2 -25 -10 -27 -49 -13 -25 9 -33 21 -29 44 0 4 -3 7 -9 7
-23 0 -3 25 25 31 26 6 25 7 -15 8 -25 2 -39 5 -32 8 16 6 -3 33 -24 33 -8 0
-14 8 -14 19 0 15 6 17 40 14 41 -4 49 4 28 25 -9 9 -8 12 5 12 12 0 17 8 17
30 0 26 -5 31 -31 37 -29 6 -30 8 -28 52 l3 46 -48 7 c-55 8 -70 18 -64 44 2
13 12 19 31 19 15 -1 27 4 27 10 0 5 5 3 10 -5 8 -13 10 -12 10 3 0 20 26 23
33 5 4 -10 6 -10 6 0 1 6 7 12 15 12 9 0 19 -17 24 -42 8 -34 10 -37 11 -15 1
20 6 27 17 25 10 -2 18 3 20 10 1 7 0 8 -2 3 -4 -7 -10 -6 -19 2 -7 7 -11 15
-8 20 2 4 -34 7 -81 7 -59 0 -85 -4 -84 -11 2 -6 -3 -14 -10 -16 -11 -4 -12
-1 -3 15 6 10 7 23 3 26 -4 4 5 5 21 1 l27 -7 0 56 0 56 -40 0 c-29 0 -42 -5
-50 -19z m109 -240 c20 -13 6 -28 -29 -33 -31 -5 -34 -1 -24 26 7 18 31 21 53
7z m91 -101 c0 -5 -4 -10 -10 -10 -5 0 -10 5 -10 10 0 6 5 10 10 10 6 0 10 -4
10 -10z m-88 -92 c5 -47 5 -48 -23 -48 -34 0 -37 10 -8 28 l20 13 -23 19 -23
19 23 1 c12 0 22 5 22 12 0 27 8 -1 12 -44z m-118 -124 c11 -4 13 -11 6 -29
-8 -20 -6 -24 13 -27 24 -3 50 -47 38 -63 -5 -5 -11 -19 -13 -30 -5 -18 -6
-18 -16 5 l-12 25 3 -25 c3 -37 -21 -52 -53 -32 -31 20 -50 39 -52 49 0 4 -3
13 -5 19 -2 7 -3 31 -1 55 3 42 4 44 36 44 17 0 32 3 32 7 0 10 4 10 24 2z
m-107 -81 c-2 -16 -4 -5 -4 22 0 28 2 40 4 28 2 -13 2 -35 0 -50z m348 27 c3
-6 -1 -7 -9 -4 -18 7 -21 14 -7 14 6 0 13 -4 16 -10z m23 -39 c-15 -5 -21 7
-13 26 7 17 8 17 15 -2 4 -11 3 -22 -2 -24z m-30 17 c-6 -18 -28 -21 -28 -4 0
9 7 16 16 16 9 0 14 -5 12 -12z m51 -33 c-8 -7 -78 -9 -85 -2 -4 4 14 7 41 7
27 0 46 -2 44 -5z m-57 -60 c-2 -14 -8 -25 -13 -25 -5 0 -9 11 -9 25 0 14 6
25 14 25 9 0 12 -8 8 -25z m-352 -98 c10 -4 8 -6 -7 -6 -16 -1 -23 5 -23 17 0
10 3 13 8 6 4 -6 14 -14 22 -17z m447 -24 c-3 -10 -5 -4 -5 12 0 17 2 24 5 18
2 -7 2 -21 0 -30z m295 25 c7 -18 -2 -39 -13 -32 -12 7 -12 44 0 44 5 0 11 -6
13 -12z m-112 -42 c0 -2 -7 -9 -15 -16 -12 -10 -15 -10 -15 4 0 9 7 16 15 16
8 0 15 -2 15 -4z m-40 -19 c0 -2 -14 -16 -32 -33 l-31 -29 23 33 c20 27 40 42
40 29z m507 -159 c-3 -8 -6 -5 -6 6 -1 11 2 17 5 13 3 -3 4 -12 1 -19z m77 1
c-3 -5 0 -9 5 -9 6 0 11 -5 11 -11 0 -6 -6 -9 -14 -6 -8 3 -17 1 -19 -6 -2 -7
-4 2 -3 19 1 21 5 30 13 27 7 -3 10 -9 7 -14z m-559 -59 c-3 -5 -11 -10 -16
-10 -6 0 -7 5 -4 10 3 6 11 10 16 10 6 0 7 -4 4 -10z m-15 -32 c0 -6 -6 -5
-15 2 -8 7 -15 14 -15 16 0 2 7 1 15 -2 8 -4 15 -11 15 -16z m65 -6 c-3 -3
-11 0 -18 7 -9 10 -8 11 6 5 10 -3 15 -9 12 -12z m-24 -35 c-10 -9 -11 -8 -5
6 3 10 9 15 12 12 3 -3 0 -11 -7 -18z m-651 3 c0 -5 -4 -10 -10 -10 -5 0 -10
5 -10 10 0 6 5 10 10 10 6 0 10 -4 10 -10z m905 -70 c3 -5 -1 -10 -9 -10 -9 0
-16 5 -16 10 0 6 4 10 9 10 6 0 13 -4 16 -10z m225 -10 c0 -5 -4 -10 -10 -10
-5 0 -10 5 -10 10 0 6 5 10 10 10 6 0 10 -4 10 -10z m-763 -36 c-3 -3 -12 -4
-19 -1 -8 3 -5 6 6 6 11 1 17 -2 13 -5z m894 -145 c4 -19 9 -83 11 -144 4 -85
9 -117 24 -143 11 -18 25 -30 32 -27 7 3 11 1 8 -4 -10 -15 -93 -31 -153 -29
l-58 1 60 7 c50 5 53 7 20 8 -27 2 -35 5 -26 11 8 5 11 16 7 28 -4 11 -2 32 3
47 9 21 8 26 -4 26 -8 0 -15 9 -15 21 0 11 -5 29 -11 41 -13 24 -5 60 18 84
13 12 14 19 6 21 -19 7 28 73 52 73 17 0 18 2 5 11 -13 9 -13 10 0 7 8 -3 18
-20 21 -39z m-267 15 c8 -3 13 -13 10 -22 -5 -15 -4 -15 9 1 14 17 81 25 90
10 6 -11 -8 -111 -16 -119 -4 -4 -13 -1 -22 6 -10 8 -19 9 -27 3 -7 -6 -25
-13 -40 -17 -25 -6 -28 -4 -28 19 0 30 6 31 33 8 20 -17 20 -17 14 0 -4 10 -7
22 -7 26 0 5 -12 6 -27 4 -25 -4 -26 -3 -9 8 11 7 14 14 8 18 -13 8 -24 61
-12 61 5 0 15 -3 24 -6z m174 -1 c-10 -2 -28 -2 -40 0 -13 2 -5 4 17 4 22 1
32 -1 23 -4z m-308 -73 c0 -5 -5 -10 -11 -10 -5 0 -7 5 -4 10 3 6 8 10 11 10
2 0 4 -4 4 -10z m-120 -40 c0 -5 -8 -10 -17 -10 -15 0 -16 -2 -3 -10 8 -5 13
-10 10 -11 -3 0 -13 -2 -22 -4 -30 -6 -3 34 30 44 1 1 2 -3 2 -9z m160 -6 c0
-8 -4 -12 -10 -9 -5 3 -10 10 -10 16 0 5 5 9 10 9 6 0 10 -7 10 -16z m170 -23
c0 -6 -4 -13 -10 -16 -5 -3 -10 1 -10 9 0 9 5 16 10 16 6 0 10 -4 10 -9z
m-530 -11 c0 -5 -10 -10 -22 -9 -22 0 -22 1 -3 9 11 5 21 9 23 9 1 1 2 -3 2
-9z m361 -13 c-10 -9 -11 -8 -5 6 3 10 9 15 12 12 3 -3 0 -11 -7 -18z m129 13
c-8 -5 -19 -10 -25 -10 -5 0 -3 5 5 10 8 5 20 10 25 10 6 0 3 -5 -5 -10z
m-230 -24 c0 -2 -7 -7 -16 -10 -8 -3 -12 -2 -9 4 6 10 25 14 25 6z m-53 -12
c-3 -3 -12 -4 -19 -1 -8 3 -5 6 6 6 11 1 17 -2 13 -5z m-11 -41 c-3 -4 -63
-17 -161 -37 -16 -3 -7 3 20 13 28 11 60 20 73 20 12 1 22 5 22 10 0 4 11 6
25 3 14 -2 24 -6 21 -9z m11 -49 c4 -10 0 -22 -9 -28 -9 -6 -18 -20 -20 -31
-4 -18 -6 -17 -16 6 -11 29 -29 38 -70 40 -21 1 -17 4 18 14 63 18 90 18 97
-1z m-220 0 c-3 -3 -12 -4 -19 -1 -8 3 -5 6 6 6 11 1 17 -2 13 -5z m566 -91
c-18 -2 -48 -2 -65 0 -18 2 -4 4 32 4 36 0 50 -2 33 -4z"/>
<path d="M271 1773 c1 -32 3 -50 6 -40 3 10 10 14 16 11 8 -5 8 -2 0 7 -7 7
-13 21 -13 32 0 15 6 17 32 13 33 -5 68 8 68 24 0 6 -25 10 -55 10 l-55 0 1
-57z"/>
<path d="M620 1810 c0 -24 15 -27 24 -4 9 22 8 24 -9 24 -8 0 -15 -9 -15 -20z"/>
<path d="M703 1823 c9 -2 23 -2 30 0 6 3 -1 5 -18 5 -16 0 -22 -2 -12 -5z"/>
<path d="M905 1810 c208 -24 271 -23 90 1 -77 10 -165 18 -195 17 -32 0 12 -8
105 -18z"/>
<path d="M1003 1823 c9 -2 23 -2 30 0 6 3 -1 5 -18 5 -16 0 -22 -2 -12 -5z"/>
<path d="M1350 1810 c74 -10 158 -23 185 -28 l50 -11 -70 3 c-38 2 -54 1 -35
-1 19 -2 39 -8 45 -12 17 -14 85 -23 85 -11 0 5 7 10 15 10 8 0 15 5 15 12 0
6 -3 9 -6 5 -4 -3 -13 0 -21 8 -8 9 -34 15 -61 15 -26 0 -92 7 -147 15 -55 8
-120 14 -145 13 -25 0 16 -8 90 -18z"/>
<path d="M1892 1800 c0 -19 2 -27 5 -17 2 9 2 25 0 35 -3 9 -5 1 -5 -18z"/>
<path d="M2210 1805 l0 -24 43 18 c23 10 49 20 57 23 8 2 -12 5 -43 6 -54 1
-57 -1 -57 -23z"/>
<path d="M2680 1814 c-22 -12 -23 -14 -5 -14 11 1 29 7 39 15 26 19 1 18 -34
-1z"/>
<path d="M1218 1803 c7 -3 16 -2 19 1 4 3 -2 6 -13 5 -11 0 -14 -3 -6 -6z"/>
<path d="M1168 1783 c12 -2 30 -2 40 0 9 3 -1 5 -23 4 -22 0 -30 -2 -17 -4z"/>
<path d="M1388 1783 c7 -3 16 -2 19 1 4 3 -2 6 -13 5 -11 0 -14 -3 -6 -6z"/>
<path d="M330 1770 c0 -5 5 -10 10 -10 6 0 10 5 10 10 0 6 -4 10 -10 10 -5 0
-10 -4 -10 -10z"/>
<path d="M1258 1773 c12 -2 32 -2 45 0 12 2 2 4 -23 4 -25 0 -35 -2 -22 -4z"/>
<path d="M1358 1763 c12 -2 30 -2 40 0 9 3 -1 5 -23 4 -22 0 -30 -2 -17 -4z"/>
<path d="M400 1746 c0 -9 5 -16 10 -16 6 0 10 4 10 9 0 6 -4 13 -10 16 -5 3
-10 -1 -10 -9z"/>
<path d="M1453 1753 c9 -2 23 -2 30 0 6 3 -1 5 -18 5 -16 0 -22 -2 -12 -5z"/>
<path d="M38 1713 c6 -2 18 -2 25 0 6 3 1 5 -13 5 -14 0 -19 -2 -12 -5z"/>
<path d="M526 1681 c-5 -8 -1 -14 12 -18 13 -3 22 -15 25 -32 3 -21 4 -20 6 9
1 26 4 31 11 20 5 -8 12 -11 15 -8 13 13 -8 29 -30 24 -14 -4 -25 -1 -27 6 -3
9 -6 9 -12 -1z"/>
<path d="M973 1623 c9 -2 23 -2 30 0 6 3 -1 5 -18 5 -16 0 -22 -2 -12 -5z"/>
<path d="M571 1494 c0 -11 3 -14 6 -6 3 7 2 16 -1 19 -3 4 -6 -2 -5 -13z"/>
<path d="M1625 1370 c-3 -5 -1 -10 4 -10 6 0 11 5 11 10 0 6 -2 10 -4 10 -3 0
-8 -4 -11 -10z"/>
<path d="M1505 1320 c-34 -13 -46 -36 -49 -95 -3 -35 -10 -63 -20 -73 -14 -14
-12 -17 22 -29 43 -15 76 -17 68 -4 -6 10 25 20 64 21 25 1 25 1 3 10 -27 11
-31 25 -5 16 16 -6 16 -5 0 7 -9 7 -16 20 -16 28 5 77 -28 135 -67 119z m24
-34 c18 -21 10 -70 -11 -74 -14 -3 -18 3 -18 23 0 20 4 26 15 21 18 -7 19 1 2
18 -7 7 -19 11 -27 9 -13 -4 -13 -3 0 6 20 14 25 14 39 -3z m-19 -146 c0 -5
-7 -7 -15 -4 -8 4 -15 8 -15 10 0 2 7 4 15 4 8 0 15 -4 15 -10z"/>
<path d="M1515 1230 c3 -5 8 -10 11 -10 2 0 4 5 4 10 0 6 -5 10 -11 10 -5 0
-7 -4 -4 -10z"/>
<path d="M503 1313 c24 -4 25 -6 12 -19 -12 -12 -13 -18 -2 -28 16 -17 47 -16
47 1 0 16 17 17 22 1 3 -7 7 -6 11 5 5 12 1 17 -13 17 -11 0 -20 5 -20 11 0 5
5 7 10 4 6 -3 10 -1 10 4 0 7 -21 10 -52 10 -29 -1 -41 -4 -25 -6z"/>
<path d="M960 1298 c0 -5 28 -7 63 -7 67 1 60 6 -15 11 -27 2 -48 0 -48 -4z"/>
<path d="M1789 1190 c-14 -4 -35 -13 -48 -19 -18 -10 -20 -15 -10 -27 8 -10 8
-18 1 -27 -6 -7 -8 -24 -5 -37 5 -18 3 -21 -7 -15 -10 6 -11 4 -5 -11 4 -10
10 -31 13 -46 3 -19 10 -28 23 -28 11 0 19 -4 19 -10 0 -5 -4 -10 -10 -10 -15
0 -12 -27 3 -33 7 -3 24 1 38 9 13 7 20 13 15 14 -5 0 2 9 15 20 13 11 32 27
42 36 16 16 17 16 17 1 0 -9 3 -16 8 -15 4 1 20 -10 36 -25 16 -15 33 -27 38
-27 15 0 -11 39 -34 51 -15 8 -17 13 -8 19 8 5 2 10 -18 15 -27 5 -30 9 -23
28 12 32 1 99 -18 118 -22 21 -50 27 -82 19z"/>
<path d="M490 1159 c0 -5 5 -7 10 -4 6 3 10 8 10 11 0 2 -4 4 -10 4 -5 0 -10
-5 -10 -11z"/>
<path d="M2195 1144 c-9 -7 -15 -18 -14 -26 7 -54 2 -58 -66 -58 l-65 0 0 -80
0 -80 43 -2 c23 0 54 -1 70 -1 15 0 27 -3 27 -6 0 -4 10 -7 22 -8 21 -2 56 33
50 50 -1 4 9 7 23 7 14 0 25 5 25 10 0 6 -4 10 -10 10 -5 0 -10 5 -10 11 0 6
8 8 18 5 42 -14 50 91 12 144 -12 17 -29 31 -38 32 -52 4 -72 2 -87 -8z m50
-214 c-3 -5 -12 -10 -18 -10 -7 0 -6 4 3 10 19 12 23 12 15 0z"/>
<path d="M1588 1123 c7 -3 16 -2 19 1 4 3 -2 6 -13 5 -11 0 -14 -3 -6 -6z"/>
<path d="M490 1096 c0 -18 17 -29 30 -21 8 5 7 11 -1 21 -15 18 -29 18 -29 0z"/>
<path d="M550 1106 c0 -2 7 -9 15 -16 12 -10 15 -10 15 4 0 9 -7 16 -15 16 -8
0 -15 -2 -15 -4z"/>
<path d="M1440 1102 c0 -15 27 -22 78 -21 46 1 46 1 12 9 -19 4 -47 11 -62 15
-17 4 -28 3 -28 -3z"/>
<path d="M1588 1103 c7 -3 16 -2 19 1 4 3 -2 6 -13 5 -11 0 -14 -3 -6 -6z"/>
<path d="M1580 1057 c0 -18 6 -40 13 -49 15 -20 87 -30 80 -11 -3 6 -19 13
-36 15 -18 2 -30 7 -29 12 2 5 -2 13 -10 17 -11 7 -11 9 1 9 10 0 11 3 2 13
-6 8 -8 17 -4 20 3 4 1 7 -5 7 -7 0 -12 -15 -12 -33z"/>
<path d="M1430 1071 c12 -8 12 -11 1 -11 -9 0 -12 -8 -9 -25 4 -20 2 -24 -16
-21 -12 2 -20 10 -20 20 1 9 -2 16 -7 16 -5 0 -9 -9 -9 -20 0 -26 43 -53 72
-46 13 3 17 3 11 0 -33 -15 -5 -24 70 -22 79 1 80 2 27 8 -30 4 -46 8 -35 9
33 2 -4 21 -42 21 -18 0 -33 3 -33 8 0 4 30 6 67 6 l68 -2 -55 8 -55 7 50 2
c34 1 45 4 36 10 -8 5 -21 7 -30 4 -11 -4 -13 -3 -6 5 6 5 19 12 30 15 11 3 1
5 -21 6 -23 0 -57 4 -75 7 -26 4 -30 3 -19 -5z m53 -18 c-7 -2 -19 -2 -25 0
-7 3 -2 5 12 5 14 0 19 -2 13 -5z"/>
<path d="M2472 1073 l-53 -4 7 -57 c7 -59 14 -81 14 -44 0 11 4 23 10 27 5 3
3 -15 -5 -40 -10 -35 -10 -47 -2 -50 7 -2 67 -6 135 -8 l122 -5 -6 81 c-3 45
-7 88 -10 95 -3 12 -81 14 -212 5z"/>
<path d="M1548 993 c6 -2 18 -2 25 0 6 3 1 5 -13 5 -14 0 -19 -2 -12 -5z"/>
<path d="M1431 915 c-6 -19 -15 -82 -18 -140 -3 -58 -10 -105 -15 -105 -6 0
-23 -14 -39 -32 -23 -23 -33 -28 -41 -20 -17 17 -33 15 -18 -3 7 -8 9 -15 4
-16 -5 0 2 -5 16 -10 19 -8 27 -6 36 6 11 14 12 14 18 0 4 -12 10 -13 25 -6
25 14 31 5 31 -43 0 -47 11 -68 30 -64 21 5 24 -34 4 -49 -12 -8 -13 -13 -5
-13 14 0 14 -6 -5 -169 -4 -32 -3 -52 2 -48 6 3 9 -11 8 -31 -2 -20 1 -46 6
-57 5 -11 11 -41 15 -68 l6 -47 337 0 c254 1 343 4 361 14 22 12 22 13 5 20
-18 7 -18 8 -1 21 17 12 16 14 -12 20 -32 7 -52 25 -29 25 25 0 -16 20 -42 20
-26 1 -80 41 -80 60 0 5 8 10 18 11 14 0 14 2 -3 9 -13 6 7 9 60 9 79 0 151
-15 95 -20 -28 -2 26 -10 232 -33 174 -19 202 -24 261 -44 76 -26 59 -52 -34
-52 -27 0 -49 -3 -49 -7 0 -18 69 -53 103 -53 l37 0 0 373 0 374 -57 4 c-32 2
-88 2 -125 1 -41 -1 -68 2 -68 8 0 5 -12 10 -27 10 -16 0 -45 3 -65 6 -34 6
-37 10 -48 55 -7 27 -16 49 -22 49 -5 0 -6 -10 -3 -21 5 -15 4 -19 -4 -15 -14
9 -15 -16 -1 -30 16 -16 0 -44 -24 -43 -16 1 -17 2 -3 6 9 2 17 11 17 19 0 17
-31 19 -47 3 -9 -9 -11 -7 -9 5 1 10 8 21 15 26 8 4 10 14 7 21 -4 8 0 5 9 -6
16 -19 16 -19 9 10 -10 44 -21 51 -44 30 -16 -15 -18 -21 -7 -33 10 -13 9 -15
-6 -9 -11 4 -20 1 -23 -8 -4 -8 -11 -15 -16 -15 -6 0 -5 7 2 15 15 18 5 33
-27 39 -14 3 -25 -4 -34 -22 -8 -15 -20 -31 -26 -35 -19 -12 -16 -37 5 -37 14
0 15 -2 2 -10 -10 -6 -16 -6 -18 0 -2 6 -9 10 -16 10 -6 0 -19 12 -28 28 l-17
27 -1 -32 c0 -17 3 -33 8 -36 4 -2 1 -2 -6 0 -10 2 -12 -7 -8 -35 4 -21 2 -31
-2 -24 -6 9 -19 10 -48 3 -32 -7 -34 -9 -12 -10 15 -1 30 -5 33 -11 8 -13 -26
-71 -37 -64 -4 3 -8 -6 -8 -20 0 -14 -4 -26 -10 -26 -5 0 -10 -5 -10 -10 0 -6
-9 -20 -20 -32 -26 -28 -25 -37 2 -47 23 -8 18 -14 -25 -30 -21 -8 -25 -7 -20
4 3 10 -2 15 -16 15 -18 0 -20 2 -9 14 7 7 20 11 28 9 12 -4 13 -3 1 5 -8 6
-11 17 -8 26 8 21 3 20 -19 -1 -16 -16 -16 -16 -10 2 3 11 2 43 -2 71 -10 58
-1 72 54 81 46 8 36 15 -26 20 -45 4 -133 32 -102 33 6 0 12 7 12 15 0 10 -10
15 -31 15 -23 0 -30 4 -26 14 3 8 -1 17 -9 20 -8 3 -14 12 -14 21 0 8 -7 15
-16 15 -17 0 -44 -57 -44 -93 0 -13 -7 -32 -15 -43 -13 -18 -14 -18 -8 6 5 21
3 23 -8 13 -18 -17 -29 -16 -29 2 0 8 -4 15 -10 15 -5 0 -10 -7 -10 -16 0 -20
-19 -8 -30 20 -8 20 -9 20 -9 -5 -1 -18 -9 -29 -27 -38 -26 -11 -26 -11 -20
16 4 15 9 47 13 70 5 37 9 42 37 47 61 12 102 66 50 66 -30 0 -32 17 -1 23 12
2 -5 6 -38 7 l-60 3 60 7 60 7 -80 1 -81 2 -13 -35z m76 -11 c-3 -3 -12 -4
-19 -1 -8 3 -5 6 6 6 11 1 17 -2 13 -5z m650 -86 c-3 -8 -6 -5 -6 6 -1 11 2
17 5 13 3 -3 4 -12 1 -19z m68 -26 c-13 -13 -36 -9 -45 8 -9 18 -8 18 20 8 17
-6 28 -13 25 -16z m27 -34 c-9 -9 -15 -9 -24 0 -9 9 -7 12 12 12 19 0 21 -3
12 -12z m-62 -8 c0 -5 -7 -10 -15 -10 -8 0 -15 5 -15 10 0 6 7 10 15 10 8 0
15 -4 15 -10z m-30 -46 c0 -3 -7 -1 -15 6 -8 7 -15 17 -15 22 0 5 7 3 15 -6 8
-8 15 -18 15 -22z m467 20 c-3 -3 -12 -4 -19 -1 -8 3 -5 6 6 6 11 1 17 -2 13
-5z m-407 -24 c0 -5 -7 -10 -15 -10 -8 0 -15 5 -15 10 0 6 7 10 15 10 8 0 15
-4 15 -10z m-605 -41 c-10 -15 -25 -10 -19 6 4 8 10 12 15 9 5 -3 7 -10 4 -15z
m1075 -121 c0 -16 -3 -19 -11 -11 -6 6 -8 16 -5 22 11 17 16 13 16 -11z m-420
-28 c0 -5 -2 -10 -4 -10 -3 0 -8 5 -11 10 -3 6 -1 10 4 10 6 0 11 -4 11 -10z
m-195 -57 c-3 -32 -8 -59 -10 -61 -2 -2 -5 24 -7 57 -2 45 0 61 10 61 10 0 12
-14 7 -57z m-351 -28 c-5 -12 3 -15 38 -15 l44 0 -4 -42 c-6 -86 -3 -83 -84
-82 -40 1 -86 6 -102 13 -16 6 -31 10 -33 8 -2 -3 11 -10 29 -18 32 -13 32
-13 8 -19 -14 -3 -29 -16 -35 -28 -13 -30 -25 -28 -25 6 0 15 -3 38 -7 51 -3
14 -2 22 3 18 5 -3 8 20 6 54 l-4 59 36 0 c20 0 36 -4 36 -9 0 -5 7 -12 16
-15 17 -7 58 17 47 27 -3 4 3 7 15 7 15 0 20 -5 16 -15z m126 5 c-10 -6 -11
-10 -2 -10 6 0 12 -7 12 -15 0 -8 -9 -15 -20 -15 -22 0 -28 35 -7 43 21 9 33
7 17 -3z m1 -73 c-10 -9 -11 -8 -5 6 3 10 9 15 12 12 3 -3 0 -11 -7 -18z m149
-22 c0 -32 -2 -35 -30 -35 -26 0 -30 4 -30 28 0 35 2 37 34 40 23 2 26 -2 26
-33z m-100 -9 c0 -3 -4 -8 -10 -11 -5 -3 -10 -1 -10 4 0 6 5 11 10 11 6 0 10
-2 10 -4z m-11 -90 c-3 -3 -11 5 -18 17 -13 21 -12 21 5 5 10 -10 16 -20 13
-22z m266 -6 l60 -7 -70 0 c-38 -1 -99 3 -135 7 l-65 7 75 0 c41 1 102 -3 135
-7z m-270 -30 c3 -6 -1 -7 -9 -4 -18 7 -21 14 -7 14 6 0 13 -4 16 -10z m110 0
c-3 -5 -12 -10 -18 -10 -7 0 -6 4 3 10 19 12 23 12 15 0z m-480 -40 c3 -6 -1
-7 -9 -4 -18 7 -21 14 -7 14 6 0 13 -4 16 -10z m475 -40 c-16 -10 -170 -33
-177 -27 -2 3 35 11 82 18 60 8 89 17 93 28 4 11 7 12 10 2 2 -7 -1 -17 -8
-21z m-197 -37 c-7 -2 -19 -2 -25 0 -7 3 -2 5 12 5 14 0 19 -2 13 -5z m372
-31 c-3 -3 -11 0 -18 7 -9 10 -8 11 6 5 10 -3 15 -9 12 -12z m-30 -2 c3 -6 -1
-7 -9 -4 -18 7 -21 14 -7 14 6 0 13 -4 16 -10z m-395 -10 c0 -5 -4 -10 -10
-10 -5 0 -10 5 -10 10 0 6 5 10 10 10 6 0 10 -4 10 -10z m450 -15 c0 -2 -9 -3
-19 -2 -11 0 -18 5 -15 9 4 6 34 0 34 -7z"/>
<path d="M1770 376 c0 -8 5 -18 10 -21 6 -3 10 1 10 9 0 8 -4 18 -10 21 -5 3
-10 -1 -10 -9z"/>
<path d="M1754 308 c-3 -4 4 -8 15 -8 12 0 21 4 21 8 0 5 -7 9 -15 9 -9 0 -18
-4 -21 -9z"/>
<path d="M1160 890 c0 -5 5 -10 11 -10 5 0 7 5 4 10 -3 6 -8 10 -11 10 -2 0
-4 -4 -4 -10z"/>
<path d="M2040 869 c0 -12 24 -22 45 -17 12 2 7 7 -14 15 -18 6 -31 7 -31 2z"/>
<path d="M2690 860 c0 -5 5 -10 10 -10 6 0 10 5 10 10 0 6 -4 10 -10 10 -5 0
-10 -4 -10 -10z"/>
<path d="M1260 835 c0 -5 5 -17 10 -25 5 -8 10 -10 10 -5 0 6 -5 17 -10 25 -5
8 -10 11 -10 5z"/>
<path d="M1306 783 c-6 -14 -5 -15 5 -6 7 7 10 15 7 18 -3 3 -9 -2 -12 -12z"/>
<path d="M1279 731 c7 -5 10 -14 7 -20 -4 -6 -2 -19 3 -28 9 -15 10 -14 11 10
0 19 7 30 23 37 19 7 16 9 -18 9 -26 1 -35 -2 -26 -8z"/>
<path d="M1380 420 c0 -6 7 -10 15 -10 8 0 15 2 15 4 0 2 -7 6 -15 10 -8 3
-15 1 -15 -4z"/>
</g>
</svg>
